<svg xmlns="http://www.w3.org/2000/svg" viewBox="0 0 512 512" fill="currentColor">
  <defs>
    <linearGradient id="grad1" x1="0%" y1="0%" x2="100%" y2="100%">
      <stop offset="0%" style="stop-color:#2563eb;stop-opacity:1" />
      <stop offset="100%" style="stop-color:#16a34a;stop-opacity:1" />
    </linearGradient>
  </defs>
  <!-- Background -->
  <rect width="512" height="512" rx="30" fill="#f0f9ff" />
  
  <!-- Computer screen -->
  <rect x="80" y="100" width="352" height="250" rx="20" fill="#e0f2fe" stroke="#bfdbfe" stroke-width="4"/>
  <rect x="100" y="120" width="312" height="190" rx="10" fill="white" />
  
  <!-- Video call elements -->
  <!-- Doctor icon -->
  <circle cx="180" cy="215" r="50" fill="url(#grad1)" opacity="0.8"/>
  <path d="M180 185 c-15 0 -25 15 -25 30 c0 20 20 30 25 30 c5 0 25 -10 25 -30 c0 -15 -10 -30 -25 -30z" fill="white"/>
  <path d="M155 240 c0 10 10 20 25 20 s25 -10 25 -20z" fill="white"/>
  <circle cx="170" cy="205" r="5" fill="#4b5563"/>
  <circle cx="190" cy="205" r="5" fill="#4b5563"/>
  <path d="M170 225 q10 8 20 0" stroke="#4b5563" stroke-width="3" fill="none"/>
  <rect x="175" y="155" width="10" height="15" fill="url(#grad1)" opacity="0.6" transform="rotate(-15 180 160)"/>
  <rect x="175" y="155" width="10" height="15" fill="url(#grad1)" opacity="0.6" transform="rotate(15 180 160)"/>
  
  <!-- Patient icon (smaller) -->
  <circle cx="332" cy="260" r="30" fill="#d1fae5" />
  <path d="M332 240 c-10 0 -15 10 -15 20 c0 15 10 20 15 20 s15 -5 15 -20 c0 -10 -5 -20 -15 -20z" fill="white"/>
  <path d="M317 275 c0 5 5 10 15 10 s15 -5 15 -10z" fill="white"/>
  <circle cx="327" cy="253" r="3" fill="#4b5563"/>
  <circle cx="337" cy="253" r="3" fill="#4b5563"/>
  <path d="M327 265 q5 4 10 0" stroke="#4b5563" stroke-width="2" fill="none"/>
  
  <!-- Computer stand -->
  <path d="M236 350 h40 l15 40 h-70 z" fill="#9ca3af"/>
  <rect x="206" y="390" width="100" height="10" rx="5" fill="#6b7280"/>
  
  <!-- Webcam -->
  <circle cx="256" cy="110" r="8" fill="#4b5563"/>
  <circle cx="256" cy="110" r="4" fill="#9ca3af"/>
  
  <!-- Connection lines (subtle) -->
  <path d="M180 290 q76 0 152 -30" stroke="url(#grad1)" stroke-width="3" fill="none" stroke-dasharray="5 5" opacity="0.5"/>
</svg> 